<svg viewBox="0 0 200 200" xmlns="http://www.w3.org/2000/svg">
  <defs>
    <linearGradient id="g" x1="0%" y1="0%" x2="100%" y2="100%">
      <stop offset="0%" style="stop-color:#e2bc72"/>
      <stop offset="100%" style="stop-color:#c8906a"/>
    </linearGradient>
  </defs>
  <rect width="200" height="200" fill="#1a0e0b"/>
  <!-- Forma do olho -->
  <path d="M30 105 Q100 55 170 105 Q100 138 30 105Z"
        fill="none" stroke="url(#g)" stroke-width="2" stroke-linecap="round"/>
  <!-- Íris -->
  <circle cx="100" cy="100" r="22" fill="none" stroke="url(#g)" stroke-width="1.8"/>
  <!-- Pupila -->
  <circle cx="100" cy="100" r="9" fill="url(#g)" opacity="0.95"/>
  <!-- Brilho -->
  <circle cx="106" cy="95" r="3" fill="#fff" opacity="0.4"/>
  <!-- Cílios -->
  <path d="M58 82 Q52 68 48 56" fill="none" stroke="url(#g)" stroke-width="2" stroke-linecap="round"/>
  <path d="M72 70 Q70 55 70 42" fill="none" stroke="url(#g)" stroke-width="2" stroke-linecap="round"/>
  <path d="M87 63 Q88 48 90 35" fill="none" stroke="url(#g)" stroke-width="2" stroke-linecap="round"/>
  <path d="M100 60 Q102 45 103 32" fill="none" stroke="url(#g)" stroke-width="2" stroke-linecap="round"/>
  <path d="M113 63 Q116 48 120 36" fill="none" stroke="url(#g)" stroke-width="2" stroke-linecap="round"/>
  <path d="M128 70 Q132 56 136 44" fill="none" stroke="url(#g)" stroke-width="2" stroke-linecap="round"/>
  <path d="M142 82 Q148 70 154 60" fill="none" stroke="url(#g)" stroke-width="2" stroke-linecap="round"/>
  <!-- Linha sutil inferior -->
  <path d="M45 112 Q100 128 155 112" fill="none" stroke="url(#g)" stroke-width="0.8" stroke-linecap="round" opacity="0.4"/>
</svg>
